<svg width="35" height="30" viewBox="0 0 35 30" fill="none" xmlns="http://www.w3.org/2000/svg">
<path d="M17.2088 20.169C19.72 20.169 21.7556 18.1345 21.7556 15.6233C21.7556 14.3688 21.2464 13.2318 20.4239 12.4093C19.6014 11.5857 18.4644 11.0776 17.2088 11.0776C15.9532 11.0776 14.8173 11.5868 13.9948 12.4093C13.1711 13.2318 12.6631 14.3688 12.6631 15.6233C12.6631 16.8778 13.1723 18.0159 13.9948 18.8384C14.8173 19.6609 15.9532 20.169 17.2088 20.169V20.169Z" fill="#FF621D"/>
<path d="M34.1583 21.2847C35.161 24.9743 32.999 28.8283 29.296 29.7829C28.0795 30.0962 26.7512 30.0851 25.4284 29.6553L13.4252 25.7576C13.329 25.714 13.2506 25.6547 13.1902 25.5864C12.8287 25.1824 13.0794 24.4483 13.7106 24.4483H17.2088C22.229 24.4483 26.3091 20.4208 26.3931 15.4208V15.263H26.3953C26.3953 13.8966 26.0976 12.6007 25.5616 11.4358C25.1845 10.611 24.6876 9.85228 24.0934 9.18196C22.8501 7.77529 21.1826 6.75246 19.2903 6.31491C18.9557 6.23769 18.6144 6.1795 18.2675 6.13809C17.8993 6.09557 17.5255 6.07543 17.145 6.07766C12.0823 6.11124 8.02454 10.291 8.02454 15.3536L7.94509 25.8147V29.3129C7.94509 29.944 7.21098 30.1947 6.80699 29.8333C6.73984 29.7728 6.68053 29.6956 6.63577 29.5983L0.319701 9.17189C-0.634871 6.07766 0.592756 2.69248 3.36471 1.01835C4.43119 0.373769 5.68567 0 7.0364 0H22.9832C26.2756 0 29.1024 2.22583 29.8846 5.35922L34.1583 21.2847Z" fill="#FF621D"/>
</svg>
